<svg xmlns="http://www.w3.org/2000/svg" viewBox="0 0 1027.61 109.03"><defs><style>.cls-1{fill:#231f20;}</style></defs><g id="Layer_2" data-name="Layer 2"><g id="Layer_1-2" data-name="Layer 1"><polygon class="cls-1" points="55.62 52.48 74.89 52.48 65.28 31.75 55.62 52.48"/><polygon class="cls-1" points="628.26 52.48 647.53 52.48 637.92 31.75 628.26 52.48"/><path class="cls-1" d="M444.15,31.91H410.78v12h33.37a6,6,0,0,0,6-5.95A6,6,0,0,0,444.15,31.91Z"/><path class="cls-1" d="M1027.61,27.51a11.31,11.31,0,0,0-5.25-9.55,9,9,0,0,0-.74-.52c-.25-.18-.49-.36-.75-.52s-.48-.36-.74-.52-.48-.35-.74-.52-.48-.35-.74-.52-.49-.35-.74-.51a9,9,0,0,0-.74-.52c-.24-.18-.49-.36-.74-.52s-.49-.36-.74-.52-.49-.36-.75-.52-.48-.35-.74-.52-.48-.35-.74-.51a7.57,7.57,0,0,0-.74-.52c-.24-.18-.49-.36-.74-.52s-.49-.36-.74-.52-.49-.36-.74-.52-.49-.35-.74-.52-.49-.35-.75-.51a7.57,7.57,0,0,0-.74-.52,7.57,7.57,0,0,0-.74-.52c-.24-.18-.48-.36-.74-.52s-.49-.36-.74-.52-.49-.35-.74-.52-.49-.35-.74-.52-.49-.35-.75-.51a7.57,7.57,0,0,0-.74-.52c-.24-.18-.48-.36-.74-.52s-.48-.36-.74-.52-.49-.36-.74-.52-.49-.35-.74-.52A11.32,11.32,0,0,0,993.29.1H911.16c-.35,0-.7,0-1,0s-.69,0-1,0H878.26a11.35,11.35,0,0,0-10.38,6.78l-4.51,10.27-.29-.2a9,9,0,0,0-.74-.52,9,9,0,0,0-.74-.52c-.24-.18-.49-.36-.74-.52s-.49-.35-.74-.52-.49-.35-.74-.52-.49-.35-.75-.51a7.57,7.57,0,0,0-.74-.52,9,9,0,0,0-.74-.52c-.24-.18-.49-.36-.74-.52s-.49-.35-.74-.52-.49-.35-.74-.52-.49-.35-.74-.52-.49-.35-.75-.51a7.57,7.57,0,0,0-.74-.52c-.24-.18-.48-.36-.74-.52s-.49-.36-.74-.52-.49-.35-.74-.52-.49-.35-.74-.52-.49-.35-.74-.51a9,9,0,0,0-.74-.52,7.71,7.71,0,0,0-.75-.52c-.24-.18-.48-.36-.74-.52s-.48-.35-.74-.52-.49-.35-.74-.52-.49-.35-.74-.51a9,9,0,0,0-.74-.52,9,9,0,0,0-.74-.52c-.24-.18-.49-.36-.74-.52A11.33,11.33,0,0,0,835.45.1H804.17A12.36,12.36,0,0,0,802.55,0H775.19a11.31,11.31,0,0,0-4.69,1A11.34,11.34,0,0,0,766.05.1H673.63a11.31,11.31,0,0,0-9.18,4.72l-.35-.23c-.24-.19-.49-.35-.74-.52s-.49-.35-.75-.52-.49-.35-.74-.51a9,9,0,0,0-.74-.52,11.34,11.34,0,0,0-7-2.42H621.63a11.33,11.33,0,0,0-10,6L606.87,15l-.36-.23c-.24-.18-.49-.35-.74-.52s-.49-.35-.74-.52-.49-.35-.75-.51a7.57,7.57,0,0,0-.74-.52c-.24-.18-.48-.36-.74-.52s-.48-.36-.74-.52-.49-.35-.74-.52-.49-.35-.74-.52-.49-.35-.74-.51a9,9,0,0,0-.74-.52c-.25-.18-.49-.36-.75-.52s-.48-.36-.74-.52-.48-.36-.74-.52-.48-.35-.74-.52-.49-.35-.74-.51a9,9,0,0,0-.74-.52c-.24-.18-.49-.36-.74-.52s-.49-.36-.74-.52-.49-.36-.75-.52-.48-.35-.74-.52-.48-.35-.74-.51a7.57,7.57,0,0,0-.74-.52,9,9,0,0,0-.74-.52c-.24-.18-.49-.36-.74-.52A11.26,11.26,0,0,0,581.89,0H554.48a11.33,11.33,0,0,0-11.33,11.14c-.21-.16-.42-.3-.64-.44s-.49-.35-.74-.52-.49-.35-.74-.52-.49-.35-.74-.52-.49-.35-.74-.51a7.71,7.71,0,0,0-.75-.52c-.23-.19-.49-.35-.74-.52s-.49-.35-.74-.52-.49-.35-.74-.52-.49-.35-.74-.52-.49-.35-.74-.51a9,9,0,0,0-.74-.52,7.71,7.71,0,0,0-.75-.52,8.12,8.12,0,0,0-.74-.52c-.23-.19-.49-.35-.74-.52s-.49-.35-.74-.52-.49-.35-.74-.51a11.32,11.32,0,0,0-7-2.41H486a11.33,11.33,0,0,0-11,8.5l-.59-.41-.74-.52L473,7.06a37.62,37.62,0,0,0-21.66-7h-67.9a11.31,11.31,0,0,0-7.26,2.63l-.4-.26A11.29,11.29,0,0,0,368.91.1H286.77a11.44,11.44,0,0,0-4.57,1,11.35,11.35,0,0,0-4.56-1H185.21a11.34,11.34,0,0,0-11.33,11.34v3.75c-.22-.16-.43-.31-.65-.45s-.49-.35-.74-.52-.49-.35-.74-.52-.49-.35-.75-.51a7.57,7.57,0,0,0-.74-.52c-.24-.18-.48-.36-.74-.52s-.49-.36-.74-.52-.49-.35-.74-.52-.49-.35-.74-.52-.49-.35-.74-.51a7.71,7.71,0,0,0-.75-.52c-.24-.18-.48-.36-.74-.52s-.48-.36-.74-.52-.48-.36-.74-.52-.49-.35-.74-.52-.49-.35-.74-.51a9,9,0,0,0-.74-.52,9,9,0,0,0-.74-.52c-.24-.18-.49-.36-.75-.52s-.48-.36-.74-.52-.48-.35-.74-.52-.48-.35-.74-.52-.49-.35-.74-.51a9,9,0,0,0-.74-.52c-.24-.18-.49-.36-.74-.52A11.26,11.26,0,0,0,148.61,0H121.25a11.34,11.34,0,0,0-11.34,11.34v6.15l-.55-.38c-.24-.19-.49-.35-.74-.52s-.49-.35-.74-.52-.5-.35-.75-.52-.49-.34-.74-.51-.49-.35-.74-.52-.49-.35-.74-.52-.49-.35-.74-.52-.49-.35-.74-.52-.49-.35-.74-.52-.49-.35-.74-.51-.5-.35-.75-.52-.49-.35-.74-.52-.49-.35-.74-.52S99.23,10,99,9.85s-.49-.35-.74-.52a8.87,8.87,0,0,0-.74-.51c-.24-.19-.49-.35-.74-.52S96.27,8,96,7.78s-.5-.35-.75-.52-.49-.35-.74-.52-.49-.35-.74-.52-.49-.35-.74-.52-.49-.34-.74-.51-.49-.35-.74-.52-.49-.35-.74-.52-.49-.35-.74-.52-.5-.35-.75-.52-.49-.35-.74-.52A11.34,11.34,0,0,0,81.52.1H49a11.36,11.36,0,0,0-10,6L1.35,76.26A11.28,11.28,0,0,0,5.11,91.07c.24.18.49.35.74.52s.49.35.74.52.49.35.74.51a7.71,7.71,0,0,0,.75.52c.23.19.49.35.74.52s.49.35.74.52.49.35.74.52.49.35.74.52.49.35.74.51a9,9,0,0,0,.74.52c.24.19.49.35.75.52a8.12,8.12,0,0,0,.74.52c.23.19.49.35.74.52s.49.35.74.52.49.35.74.51a9,9,0,0,0,.74.52,9,9,0,0,0,.74.52c.24.19.49.35.74.52s.49.35.75.52.48.35.74.52.49.35.74.52.49.35.74.51a9,9,0,0,0,.74.52c.24.19.49.35.74.52s.49.35.74.52.49.35.74.52.49.35.75.52a8,8,0,0,0,.74.51,9,9,0,0,0,.74.52c.24.19.49.35.74.52a11.33,11.33,0,0,0,7,2.41h30.8a11.33,11.33,0,0,0,10.3-6.59L77.92,97H90.6l.55.38c.24.18.49.36.74.52s.49.35.75.52.48.35.74.51a7.57,7.57,0,0,0,.74.52c.24.18.49.36.74.52s.49.36.74.52.49.36.74.52.49.35.74.52.49.35.74.52.49.35.75.51a7.57,7.57,0,0,0,.74.52c.24.18.48.36.74.52s.49.36.74.52.49.35.74.52.49.35.74.52.49.35.74.51a7.71,7.71,0,0,0,.75.52c.24.18.48.36.74.52a11.34,11.34,0,0,0,6.84,2.3h30.8a12.32,12.32,0,0,0,1.61-.11h82.62a11.31,11.31,0,0,0,7.08-2.49c.14.1.28.18.42.27a11.29,11.29,0,0,0,6.85,2.32h27.36a11.34,11.34,0,0,0,11.34-11.34V90.24a11.57,11.57,0,0,0,1.27.94c.24.18.49.35.74.52s.49.35.74.51a9,9,0,0,0,.74.52c.24.18.49.36.74.52s.49.36.75.52.48.36.74.52.48.35.74.52.48.35.74.52.49.35.74.51a9,9,0,0,0,.74.52c.24.18.49.36.74.52s.49.36.74.52.49.35.75.52.48.35.74.52.48.35.74.51a7.57,7.57,0,0,0,.74.52c.24.18.49.36.74.52s.49.36.74.52.49.36.74.52.49.35.74.52.49.35.75.51a7.57,7.57,0,0,0,.74.52,7.57,7.57,0,0,0,.74.52c.24.18.48.36.74.52s.49.36.74.52.49.35.74.52.49.35.74.52.49.35.74.51a7.71,7.71,0,0,0,.75.52c.24.18.48.36.74.52a11.25,11.25,0,0,0,6.82,2.3h82.14a11.31,11.31,0,0,0,7.26-2.63l.4.26A11.29,11.29,0,0,0,406.4,109h27.36A11.34,11.34,0,0,0,445.1,97.64V93.06l.29.19c.24.18.49.36.74.52s.49.36.74.52.49.36.75.52.48.36.74.52.48.35.74.51.48.36.74.52.48.36.74.52.49.36.74.52.49.36.74.52.49.36.74.52.49.36.75.52.48.35.74.51.48.36.74.52.48.36.74.52.48.36.74.52.49.36.74.52.49.36.74.52.49.35.74.51.49.36.75.52.48.36.74.52.48.36.74.52.48.36.74.52.48.36.74.52.49.35.74.51.49.36.74.52.49.36.74.52a11.38,11.38,0,0,0,6.75,2.25h29.14a11.5,11.5,0,0,0,4.29-.84,11.28,11.28,0,0,0,4.16.79h27.36A11.34,11.34,0,0,0,547.7,97.59V93l.18.11a9,9,0,0,0,.74.52,9,9,0,0,0,.74.52c.24.18.49.35.74.52s.49.35.74.52.49.35.74.51a9,9,0,0,0,.74.52,7.71,7.71,0,0,0,.75.52,7.57,7.57,0,0,0,.74.52c.24.18.49.35.74.52s.49.35.74.52.49.35.74.52.49.35.74.51a9,9,0,0,0,.74.52,9,9,0,0,0,.74.52c.24.19.49.35.75.52s.48.35.74.52.49.35.74.52.49.35.74.51a9,9,0,0,0,.74.52,9,9,0,0,0,.74.52,9,9,0,0,0,.74.52c.24.18.49.35.74.52s.49.35.75.52.48.35.74.51a9,9,0,0,0,.74.52,9,9,0,0,0,.74.52,11.31,11.31,0,0,0,6.91,2.37h31.3a12.05,12.05,0,0,0,1.6.11h30.81a11.33,11.33,0,0,0,10.29-6.59l2.5-5.42h12.68l.55.38c.24.18.49.36.75.52s.48.35.74.52.48.35.74.51a7.57,7.57,0,0,0,.74.52c.24.18.49.36.74.52s.49.36.74.52.49.36.74.52.49.35.74.52.49.35.75.51a7.57,7.57,0,0,0,.74.52,7.57,7.57,0,0,0,.74.52c.24.18.49.36.74.52s.49.36.74.52.49.35.74.52.49.35.74.52.49.35.74.51.49.36.75.52.48.36.74.52A11.34,11.34,0,0,0,684,109h30.8a11.34,11.34,0,0,0,7.16-2.54l.35.23a11.35,11.35,0,0,0,6.85,2.31H756.5a11.34,11.34,0,0,0,11.34-11.34V90.14a10.61,10.61,0,0,0,1.27.93,7.57,7.57,0,0,0,.74.52c.24.18.48.36.74.52s.49.36.74.52.49.36.74.52.49.35.74.52.49.35.74.51a7.71,7.71,0,0,0,.75.52,7.57,7.57,0,0,0,.74.52c.24.18.48.36.74.52s.48.36.74.52.49.35.74.52.49.35.74.52.49.35.74.51a9,9,0,0,0,.74.52c.25.18.49.36.75.52s.48.36.74.52.48.35.74.52.48.35.74.52.49.35.74.51a9,9,0,0,0,.74.52c.24.18.49.36.74.52s.49.36.74.52.49.36.75.52.48.35.74.52.48.35.74.51a7.57,7.57,0,0,0,.74.52,9,9,0,0,0,.74.52c.24.18.49.36.74.52s.49.36.74.52.49.35.74.52a11.32,11.32,0,0,0,6.83,2.3h27.36a11.34,11.34,0,0,0,11.34-11.34V92.85l0,0c.25.17.48.36.74.52s.49.36.74.52.49.36.74.51.49.37.75.52.48.36.74.52.48.36.74.52.48.36.74.52.48.36.74.52.48.36.74.51.49.37.74.52.49.36.74.52.49.36.75.52.48.36.74.52.48.36.74.52.48.36.74.51a7.57,7.57,0,0,0,.74.52,9,9,0,0,0,.74.52c.25.18.49.36.74.52s.49.36.74.52.49.36.75.52.48.36.74.52.48.36.74.51a7.57,7.57,0,0,0,.74.52c.24.18.48.36.74.52s.48.36.74.52.49.36.74.52.49.36.74.52a11.39,11.39,0,0,0,6.62,2.16h32.53a11.33,11.33,0,0,0,10.09-6.17l4.13-8c.23.18.47.35.71.51s.49.35.75.51a7.57,7.57,0,0,0,.74.52c.24.18.48.36.74.52s.48.36.74.52.49.35.74.52.49.35.74.52.49.35.74.51a9,9,0,0,0,.74.52c.25.18.49.36.75.52s.48.36.74.52.48.36.74.52.49.35.74.52.49.35.74.51a9,9,0,0,0,.74.52c.24.18.49.36.74.52s.49.36.75.52.48.36.74.52.48.35.74.52.48.35.74.52.49.35.74.51a9,9,0,0,0,.74.52c.24.18.49.36.74.52a11.26,11.26,0,0,0,6.83,2.3h82.13a11.34,11.34,0,0,0,11.34-11.34v-18a11.33,11.33,0,0,0-.92-4.49,11.41,11.41,0,0,0,.92-4.49V54.46a11.33,11.33,0,0,0-.92-4.49,11.41,11.41,0,0,0,.92-4.49ZM182.93,45.91l.65.44a7.57,7.57,0,0,0,.74.52,9,9,0,0,0,.74.52c.24.18.49.36.74.52l0,0h-2.9ZM88.36,81.62l-5.54-12H47.68l-5.53,12H11.34L49,11.44H81.52l37.64,70.18Zm115-.1H121.25V11.34h27.36V59.27h54.78Zm74.25-47.83H245.11V81.62H217.74V33.69H185.21V11.44h92.43Zm91.27-4.29H314.13v9h54.78V54.62H314.13v9h54.78v18H286.77V11.44h82.14ZM477.57,81.57H448.43L435.22,64.44H410.78V81.57H383.42V11.39H451a26.5,26.5,0,0,1,26.53,26.53,25.61,25.61,0,0,1-4.23,14.36,26.41,26.41,0,0,1-11.07,9.6Zm104.32,0H551.08L513.39,38.65V81.52H486V11.34h37.65l30.81,37.18V11.34h27.41Zm79.11.1-5.54-12H620.32l-5.53,12H584l37.65-70.18h32.53l37.65,70.18Zm105-47.93H733.52V81.62H706.16V33.69H673.63V11.44h92.42Zm36.5,47.83H775.19V11.34h27.36Zm70.54.1H840.56L804.64,11.44h30.81l21.41,48.72,21.4-48.72h30.81ZM993.29,29.4H938.52v9h54.77V54.62H938.52v9h54.77v18H911.16V11.44h82.13Z"/></g></g></svg>