<svg xmlns="http://www.w3.org/2000/svg" viewBox="0 0 1285.04 110.68"><defs><style>.cls-1{fill:#f5f5f5;}</style></defs><g id="Layer_2" data-name="Layer 2"><g id="Layer_1-2" data-name="Layer 1"><path d="M472.48,18.53c-.19-.17-.39-.32-.59-.47a6.9,6.9,0,0,0-.6-.47l-.59-.47-.6-.47-.59-.47-.6-.47-.59-.47-.6-.47-.59-.47-.6-.47-.59-.47-.6-.46c-.19-.17-.39-.32-.59-.47s-.4-.32-.6-.47-.39-.32-.59-.47-.4-.32-.6-.47a6.9,6.9,0,0,0-.6-.47c-.19-.17-.39-.32-.59-.47a6.9,6.9,0,0,0-.6-.47c-.19-.17-.39-.32-.59-.47s-.39-.32-.6-.47l-.59-.47c-.19-.16-.39-.32-.6-.47l-.59-.47c-.19-.16-.39-.32-.6-.47L457,6.32c-.19-.16-.39-.31-.6-.47l-.59-.47c-.19-.16-.39-.31-.6-.47s-.39-.31-.59-.46a11.27,11.27,0,0,0-7.37-2.73H413.14a11.33,11.33,0,0,0-8.93,4.36l-14.85,19-3.47-4.45a11.26,11.26,0,0,0-2.19-2.12l-.59-.47-.6-.47-.59-.47-.6-.46a6.9,6.9,0,0,0-.6-.47c-.19-.17-.39-.32-.59-.47a6.9,6.9,0,0,0-.6-.47c-.19-.17-.39-.32-.59-.47a6.9,6.9,0,0,0-.6-.47c-.19-.17-.39-.32-.59-.47a6.9,6.9,0,0,0-.6-.47c-.19-.17-.39-.32-.59-.47s-.39-.32-.6-.47l-.59-.47c-.19-.16-.39-.32-.6-.47l-.59-.47c-.19-.16-.39-.32-.6-.47l-.59-.47c-.2-.16-.39-.32-.6-.47l-.59-.47c-.2-.16-.39-.31-.6-.46s-.39-.32-.59-.47-.39-.32-.6-.47-.39-.32-.59-.47-.4-.32-.6-.47-.39-.32-.59-.47-.4-.32-.6-.47-.39-.32-.59-.47-.4-.32-.6-.47l-.59-.47a11.36,11.36,0,0,0-7.35-2.72H324.32a11.29,11.29,0,0,0-6.15,1.81A11.23,11.23,0,0,0,312,1.72H284.68a11.34,11.34,0,0,0-11.34,11.34V26a11.31,11.31,0,0,0-4.44-7.46,6.9,6.9,0,0,0-.6-.47c-.19-.17-.39-.32-.59-.47s-.39-.32-.6-.47l-.59-.47c-.19-.16-.4-.32-.6-.47l-.59-.47c-.19-.16-.4-.32-.6-.47l-.59-.47-.6-.47-.59-.47-.6-.47c-.19-.16-.39-.31-.59-.46s-.4-.32-.6-.47-.39-.32-.59-.47-.4-.32-.6-.47-.39-.32-.59-.47-.4-.32-.6-.47-.39-.32-.59-.47-.4-.32-.6-.47-.39-.32-.59-.47l-.6-.47c-.19-.16-.39-.32-.6-.47l-.59-.47c-.19-.16-.39-.32-.6-.47L254,6.79c-.19-.16-.39-.32-.6-.47l-.59-.47c-.19-.16-.39-.31-.6-.47l-.59-.47c-.19-.16-.39-.31-.6-.46a11.26,11.26,0,0,0-7.36-2.73h-27.3a11.33,11.33,0,0,0-10.8,7.89A37.61,37.61,0,0,0,182.8,1.77H115.06a11.34,11.34,0,0,0-11.34,11.34v.2l-.35-.27-.59-.46-.6-.47-.59-.47-.6-.47A43,43,0,0,0,74.1,1.82H11.34A11.34,11.34,0,0,0,0,13.16v70a11.31,11.31,0,0,0,4.57,9.09c.19.16.39.31.6.47l.59.47c.19.16.39.31.6.46s.39.32.59.47a6.9,6.9,0,0,0,.6.47c.19.17.39.32.59.47a6.9,6.9,0,0,0,.6.47c.19.17.39.32.59.47a6.9,6.9,0,0,0,.6.47c.19.17.39.32.59.47s.39.32.6.47l.59.47c.19.16.39.32.6.47l.59.47c.19.16.39.32.6.47l.59.47c.19.16.39.31.6.47l.59.47c.19.16.39.31.6.47s.39.31.59.46.4.32.6.47.39.32.59.47.4.32.6.47.39.32.59.47.4.32.6.47.39.32.59.47.4.32.6.47.39.32.59.47l.6.47.59.47a11.29,11.29,0,0,0,7.37,2.73H92.55a43,43,0,0,0,26.05-8.72c.13.11.27.2.4.3s.4.32.6.47.39.32.59.47.4.32.6.47.39.32.59.47.4.32.6.47.39.32.59.47.4.32.6.47l.59.47.6.47.59.47.6.47.59.47a11.35,11.35,0,0,0,7.37,2.72h27.3a11.33,11.33,0,0,0,11.33-11.33V91.93h.63l.38.27.59.47c.19.16.39.32.6.47l.59.47c.19.16.39.31.6.47l.59.47c.19.16.39.31.6.46s.39.32.59.47.4.32.6.47.39.32.59.47.4.32.6.47.39.32.59.47.4.32.6.47.39.32.59.47.4.32.6.47l.59.47.6.47.59.47.6.47.59.47.6.47.59.47.6.47c.19.16.39.31.59.46s.4.32.6.47a6.9,6.9,0,0,0,.6.47c.19.17.39.32.59.47a6.9,6.9,0,0,0,.6.47c.19.17.39.32.59.47a6.9,6.9,0,0,0,.6.47c.19.17.39.32.59.47a11.35,11.35,0,0,0,7.36,2.73h29.07a11.35,11.35,0,0,0,10.19-6.35A11.2,11.2,0,0,0,238.7,99c10,7.85,24.45,11.69,43.93,11.73h.05c19.34,0,33.71-3.83,43.71-11.56l.09.07a6.9,6.9,0,0,0,.6.47c.19.17.39.32.59.47a6.9,6.9,0,0,0,.6.47c.19.17.39.32.59.47s.4.32.6.47.39.32.59.47.4.32.6.47l.59.47.6.47.59.47.6.47.59.47.6.47.59.47.6.47a11.31,11.31,0,0,0,7.36,2.72h27.3a11.33,11.33,0,0,0,11.2-9.65l.38.29c.19.17.39.32.59.47s.4.32.6.47l.59.47.6.47.59.47.6.47.59.47.6.46a6.9,6.9,0,0,0,.6.47c.19.17.39.32.59.47a6.9,6.9,0,0,0,.6.47c.19.17.39.32.59.47a6.9,6.9,0,0,0,.6.47c.19.17.39.32.59.47a11.32,11.32,0,0,0,7.44,2.79h13.65a11.34,11.34,0,0,0,9.15-4.64l3.07-4.2h0c.19.17.39.32.59.47a6.9,6.9,0,0,0,.6.47c.19.17.39.32.59.47a6.9,6.9,0,0,0,.6.47c.19.17.39.32.59.47s.39.32.6.47l.59.47c.19.16.39.32.6.47l.59.47c.19.16.39.32.6.47l.59.47c.19.16.39.31.6.47l.59.47a11.31,11.31,0,0,0,7.37,2.72h27.29a11.33,11.33,0,0,0,11.34-11.34v-70A11.31,11.31,0,0,0,472.48,18.53Z"/><path d="M1285,27.71a11.31,11.31,0,0,0-4.57-9.08l-.59-.47-.6-.47-.59-.47-.6-.46c-.19-.17-.39-.32-.59-.47s-.4-.32-.6-.47-.39-.32-.59-.47-.4-.32-.6-.47-.39-.32-.59-.47-.4-.32-.6-.47-.39-.32-.59-.47-.4-.32-.6-.47l-.59-.47-.6-.47c-.19-.16-.39-.32-.6-.47l-.59-.47c-.19-.16-.39-.32-.6-.47l-.59-.47c-.19-.16-.39-.31-.6-.47l-.59-.47c-.19-.16-.39-.31-.6-.47s-.39-.31-.59-.46a6.9,6.9,0,0,0-.6-.47c-.19-.17-.39-.32-.59-.47a6.9,6.9,0,0,0-.6-.47c-.19-.17-.39-.32-.59-.47a6.9,6.9,0,0,0-.6-.47c-.19-.17-.39-.32-.59-.47a6.9,6.9,0,0,0-.6-.47l-.59-.47a11.27,11.27,0,0,0-7.37-2.73h-81.94a11.35,11.35,0,0,0-10.69,7.55C1149.19.19,1129.92.07,1118.5,0c-15.88,0-28.1,1.89-37.36,5.78-8.21,3.45-14.23,8.65-17.78,15.16a11.28,11.28,0,0,0-2.35-2.33c-.19-.16-.39-.32-.6-.47l-.59-.47c-.19-.16-.39-.32-.6-.47l-.59-.47c-.19-.16-.39-.31-.6-.46s-.39-.32-.59-.47a6.9,6.9,0,0,0-.6-.47c-.19-.17-.39-.32-.59-.47s-.39-.32-.6-.47-.39-.32-.59-.47-.39-.32-.6-.47l-.59-.47c-.2-.16-.39-.32-.6-.47l-.59-.47c-.2-.16-.39-.32-.6-.47l-.59-.47c-.2-.16-.39-.32-.6-.47l-.59-.47c-.2-.16-.39-.32-.6-.47l-.59-.47-.6-.47c-.19-.16-.39-.31-.59-.46s-.4-.32-.6-.47-.39-.32-.59-.47-.4-.32-.6-.47-.39-.32-.59-.47-.4-.32-.6-.47-.39-.32-.59-.47-.4-.32-.6-.47l-.59-.47a11.35,11.35,0,0,0-7.33-2.71h-32.45a11.36,11.36,0,0,0-10,6l-10,18.66-.37-.4a30.11,30.11,0,0,0-2.87-2.54l-.6-.47-.59-.46c-.2-.17-.4-.32-.6-.47s-.4-.32-.6-.47l-.59-.47-.6-.47-.59-.47-.6-.47-.59-.47-.6-.47-.59-.47-.6-.47-.59-.47-.6-.47-.59-.47-.6-.47-.59-.47-.6-.47-.59-.47-.6-.46-.59-.47-.6-.47-.59-.47-.6-.47-.59-.47-.6-.47-.59-.47-.6-.47-.59-.47-.6-.47c-6-4.93-14.09-7.62-23.1-7.62H872.46a11.34,11.34,0,0,0-11.34,11.34v70a11.34,11.34,0,0,0,4.57,9.09l.6.47c.19.16.39.31.6.47s.39.31.59.46a6.9,6.9,0,0,0,.6.47c.19.17.39.32.59.47a6.9,6.9,0,0,0,.6.47c.19.17.39.32.59.47a6.9,6.9,0,0,0,.6.47c.19.17.39.32.59.47a6.9,6.9,0,0,0,.6.47l.59.47c.19.16.39.32.6.47l.59.47c.19.16.39.32.6.47l.59.47c.19.16.39.32.6.47l.59.47c.19.16.39.31.6.47l.59.47c.19.16.4.31.6.46s.39.32.59.47.4.32.6.47.39.32.59.47.4.32.6.47.39.32.59.47.4.32.6.47.39.32.59.47l.6.47.59.47.6.47a11.26,11.26,0,0,0,7.36,2.73h71.74a39.88,39.88,0,0,0,14.42-2.58,11.35,11.35,0,0,0,7.2,2.58H1015a11.34,11.34,0,0,0,10.3-6.6l2.48-5.39H1042l.5.4.6.47.59.47.6.47.59.47c.2.16.4.32.6.46s.39.32.59.47.4.32.6.47.39.32.59.47.4.32.6.47a6.9,6.9,0,0,0,.6.47l.59.47c.19.16.39.32.6.47l.59.47c.19.16.39.32.6.47l.59.47c.19.16.39.32.6.47l.59.47c.19.16.39.32.6.47l.59.47a11.34,11.34,0,0,0,7.3,2.67h30.74a11.35,11.35,0,0,0,8.36-3.68c12.45,5.24,27.3,5.27,36.73,5.29h0c15.9,0,28.12-1.88,37.36-5.75a43.83,43.83,0,0,0,5.09-2.52l.25.2c.19.16.39.32.6.47l.59.47c.19.16.39.31.6.46s.39.32.59.47a6.9,6.9,0,0,0,.6.47c.19.17.39.32.59.47a6.9,6.9,0,0,0,.6.47c.19.17.39.32.59.47a11.29,11.29,0,0,0,7.35,2.71h81.94A11.34,11.34,0,0,0,1285,97.73v-18a11.37,11.37,0,0,0-.92-4.49,11.28,11.28,0,0,0,.92-4.48V54.59a11.36,11.36,0,0,0-.92-4.48,11.28,11.28,0,0,0,.92-4.48Z"/><path d="M830.86,25.82l-.59-.47-.6-.47-.59-.47-.6-.47-.59-.47-.6-.47-.59-.47-.6-.47-.59-.47-.6-.47-.59-.47-.6-.47-.59-.47-.6-.47-.6-.46c-.19-.17-.39-.32-.59-.47s-.4-.32-.6-.47-.39-.32-.59-.47l-.6-.47-.59-.47-.6-.47-.59-.47-.6-.47-.59-.47-.6-.47-.59-.47-.6-.47-.59-.47-.6-.47-.59-.47A43.06,43.06,0,0,0,785.4,1.82H722.64A11.33,11.33,0,0,0,714.79,5l-.09-.07-.59-.47a11.33,11.33,0,0,0-7.36-2.72H679.4a11.34,11.34,0,0,0-11.34,11.34v.86c-.07-.06-.15-.1-.22-.15s-.39-.32-.6-.47-.39-.32-.59-.47-.39-.32-.6-.47l-.59-.47c-.2-.16-.39-.32-.6-.47l-.59-.47c-.2-.16-.39-.32-.6-.47l-.59-.47c-.2-.16-.39-.32-.6-.47l-.59-.47c-.2-.16-.39-.32-.6-.47l-.59-.47-.6-.47-.59-.47-.6-.47c-.19-.16-.39-.32-.59-.46s-.4-.33-.6-.47a6.9,6.9,0,0,0-.6-.47c-.19-.17-.39-.32-.59-.47a6.9,6.9,0,0,0-.6-.47,11.28,11.28,0,0,0-7.27-2.66H611.1a11.33,11.33,0,0,0-11.33,11.34v9.08a11.32,11.32,0,0,0-3.13-3.53c-.2-.16-.39-.32-.6-.47l-.59-.47c-.2-.16-.39-.32-.6-.47s-.39-.31-.59-.46-.39-.32-.6-.47-.39-.32-.59-.47-.39-.32-.6-.47-.39-.32-.59-.47-.4-.32-.6-.47-.39-.32-.59-.47-.4-.32-.6-.47L589.5,13l-.6-.47-.59-.47-.6-.47-.59-.47-.6-.47c-.19-.16-.39-.32-.6-.47l-.59-.47c-.19-.16-.39-.32-.6-.47l-.59-.47c-.19-.16-.39-.31-.6-.46s-.39-.32-.59-.47a6.9,6.9,0,0,0-.6-.47c-.19-.17-.39-.32-.59-.47a6.9,6.9,0,0,0-.6-.47c-.19-.17-.39-.32-.59-.47a6.9,6.9,0,0,0-.6-.47c-.19-.17-.39-.32-.59-.47s-.39-.32-.6-.47a11.3,11.3,0,0,0-7.32-2.71H539a11.35,11.35,0,0,0-10,6l-37.56,70A11.39,11.39,0,0,0,491.71,89a11.5,11.5,0,0,0,3.13,3.38c.19.16.39.32.59.46a6.51,6.51,0,0,0,.6.47,6.39,6.39,0,0,0,.59.47c.2.16.39.33.6.47l.59.47c.2.16.39.32.6.47l.59.47c.2.16.39.32.6.47s.39.32.6.47.38.32.59.47.39.32.6.47L502,98c.2.16.39.32.6.47l.59.47c.2.16.39.32.6.47l.59.47c.2.16.39.32.6.47s.39.32.59.46a6.51,6.51,0,0,0,.6.47,6.39,6.39,0,0,0,.59.47c.2.16.39.33.6.47s.39.33.59.47.39.32.6.47l.59.47c.2.16.39.32.6.47l.59.47c.2.16.39.32.6.47l.59.47c.2.16.39.32.6.47l.59.47a11.32,11.32,0,0,0,7.2,2.61h30.74a11.35,11.35,0,0,0,10.3-6.6l2.48-5.39h14.21l.5.4c.2.16.39.32.6.47l.59.47c.2.16.39.32.6.47l.59.47c.2.16.39.32.6.46s.39.32.59.47.39.32.6.47.39.32.59.47.39.32.6.47.39.32.59.47.39.32.6.47l.59.47c.2.16.39.32.6.47l.59.47.6.47.59.47.6.47.59.47.6.47a11.34,11.34,0,0,0,7.3,2.67h30.74a10.67,10.67,0,0,0,1.6-.12h27.78a11.34,11.34,0,0,0,11.34-11.34V91.27a11.89,11.89,0,0,0,1.22,1l.59.47c.2.16.39.32.6.47l.59.47c.2.16.39.32.6.47s.39.32.59.46a6.51,6.51,0,0,0,.6.47c.19.16.39.33.59.47s.39.33.6.47.39.33.59.47.39.32.6.47l.59.47c.2.16.39.32.6.47l.59.47c.2.16.39.32.6.47l.59.47c.2.16.39.32.6.47l.59.47c.2.16.39.32.6.47l.59.47c.2.16.39.32.6.47l.59.47c.2.16.39.32.6.46a6.39,6.39,0,0,0,.59.47,6.51,6.51,0,0,0,.6.47c.19.16.39.33.59.47s.39.33.6.47l.59.47c.2.16.39.32.6.47l.59.47c.2.16.39.32.6.47a11.34,11.34,0,0,0,7.2,2.6H725.2a11.29,11.29,0,0,0,7.84-3.15l.1.06c.19.17.39.32.59.47a11.26,11.26,0,0,0,7.36,2.73h62.76a43,43,0,0,0,30.77-12.84,47.36,47.36,0,0,0,13.45-33.51A47.39,47.39,0,0,0,834.65,29.2,44.66,44.66,0,0,0,830.86,25.82Z"/><path class="cls-1" d="M204.76,53.9A25.48,25.48,0,0,0,209,39.57a26.43,26.43,0,0,0-26.46-26.46H115.06v70h27.3V66h24.38l13.18,17.08H209L193.72,63.48A26.22,26.22,0,0,0,204.76,53.9Zm-24.9-10.11a5.71,5.71,0,0,1-4.22,1.72H142.36V33.58h33.28a6,6,0,0,1,6,6A5.74,5.74,0,0,1,179.86,43.79Z"/><path class="cls-1" d="M73.64,13.16H11.34v70h62.3c19.22.27,33.5-16,33.34-35C107.14,29.05,92.86,12.9,73.64,13.16ZM68.54,61H38.64V35.35h29.9c7.08,0,11.09,5.73,11.09,12.82S75.62,61,68.54,61Z"/><path class="cls-1" d="M284.68,49c.15,11.51-9.33,13.49-20.48,13.65C253,62.44,243.58,60.46,243.68,49V13.06h-27.3V50.67c-.1,26.46,21.57,34.07,47.82,34.12S312.13,77.13,312,50.67V13.06H284.68Z"/><polygon class="cls-1" points="385.79 48.06 358.5 13.06 324.32 13.06 324.32 83.07 351.62 83.07 351.62 45.72 378.97 83.07 392.62 83.07 419.97 45.72 419.97 83.07 447.26 83.07 447.26 13.06 413.14 13.06 385.79 48.06"/><path class="cls-1" d="M1118.5,29.31c8.55,0,15.79,1.3,18.91,6.82H1166c-2.6-21.87-23-24.64-47.51-24.79-24.58,0-47.5,4.79-47.5,24.79-.06,17.51,27.4,18.86,46.93,19.85,11,.52,19.48,1,19.48,4.06,0,5.42-10.41,6.83-18.91,6.83s-15.78-1.41-18.9-6.83H1071c2.6,21.73,23,24.7,47.5,24.75S1166,80.05,1166,60c.06-17.55-27.4-18.9-46.93-19.89-11-.53-19.48-.94-19.48-4C1099.6,30.56,1110,29.31,1118.5,29.31Z"/><path class="cls-1" d="M1003.38,13.16l-37.56,70h30.73l5.52-12h35.06l5.52,12h30.74l-37.56-70Zm6.61,41,9.64-20.68,9.58,20.68Z"/><polygon class="cls-1" points="1255.25 31.08 1255.25 13.16 1173.31 13.16 1173.31 83.17 1255.25 83.17 1255.25 65.2 1200.61 65.2 1200.61 56.24 1255.25 56.24 1255.25 40.04 1200.61 40.04 1200.61 31.08 1255.25 31.08"/><path class="cls-1" d="M953.16,47a17.15,17.15,0,0,0,8.12-15c.16-12.19-10.1-18.81-22.24-18.76H872.46v70H944.2c12,0,22.34-6.56,22.19-18.8C966.39,55.57,961.07,49.52,953.16,47Zm-53.4-17.19h31.62c2.35,0,4.27,2.34,4.27,4.69s-1.92,4.74-4.27,4.74H899.76Zm36.73,36.73H899.76V57.13h36.73c2.34,0,4.27,2.34,4.27,4.69S938.83,66.51,936.49,66.51Z"/><path class="cls-1" d="M539,13.16l-37.56,70h30.74l5.52-12h35.06l5.52,12H609l-37.56-70Zm6.62,41,9.64-20.68,9.58,20.68Z"/><polygon class="cls-1" points="679.4 50.15 648.66 13.06 611.1 13.06 611.1 83.07 638.4 83.07 638.4 40.3 676.01 83.07 706.75 83.07 706.75 13.06 679.4 13.06 679.4 50.15"/><path class="cls-1" d="M784.94,13.16h-62.3v70h62.3c19.23.27,33.5-16,33.34-35C818.44,29.05,804.17,12.9,784.94,13.16ZM779.84,61h-29.9V35.35h29.9c7.08,0,11.09,5.73,11.09,12.82S786.92,61,779.84,61Z"/></g></g></svg>