<svg xmlns="http://www.w3.org/2000/svg" viewBox="0 0 1056.73 178.67"><defs><style>.cls-1{fill:#231f20;}</style></defs><g id="Layer_2" data-name="Layer 2"><g id="Layer_1-2" data-name="Layer 1"><path class="cls-1" d="M780.3,54.9c-17.69.25-32.67,3.54-32.42,21.56v2.71c-.25,18.11,14.73,21.4,32.42,21.65,17.61-.25,32.59-3.54,32.34-21.65V76.46C812.89,58.44,797.91,55.15,780.3,54.9Z"/><path class="cls-1" d="M964.31,55.06H911.64V73.91h52.67a9.42,9.42,0,0,0,9.38-9.38,9.56,9.56,0,0,0-9.38-9.47Z"/><path class="cls-1" d="M357.81,55.06H305.15V73.91h52.66a9.42,9.42,0,0,0,9.39-9.38,9.56,9.56,0,0,0-9.39-9.47Z"/><path class="cls-1" d="M1041,46.3c-.21-.24-.42-.49-.64-.73l-.64-.74-.64-.74c-.22-.24-.43-.49-.65-.74s-.43-.49-.64-.74-.43-.5-.65-.74l-.64-.74c-.22-.25-.43-.5-.65-.74l-.64-.74c-.22-.25-.43-.5-.65-.74s-.43-.5-.65-.74-.42-.5-.64-.74-.43-.5-.65-.74-.42-.5-.64-.74l-.64-.74-.65-.75c-.22-.24-.43-.49-.64-.74s-.43-.49-.65-.74-.43-.49-.64-.74-.43-.49-.65-.74l-.64-.74c-.22-.24-.43-.49-.65-.74s-.43-.5-.65-.74-.42-.5-.64-.74-.43-.5-.65-.74-.42-.5-.64-.74-.43-.5-.65-.74-.42-.5-.64-.74-.43-.5-.65-.74-.4-.48-.61-.71c-.84-1-1.71-1.92-2.62-2.85a61.63,61.63,0,0,0-43.53-18.4h-107a19.85,19.85,0,0,0-19.22,14.9C835,7.28,813.16,0,780.26,0c-30.14.06-52.78,5.84-68.83,17.61l-.09-.1c-.21-.26-.43-.5-.65-.74s-.42-.5-.64-.75-.43-.49-.65-.74-.42-.49-.64-.74-.43-.49-.65-.74-.42-.49-.64-.74-.43-.49-.65-.74-.43-.49-.64-.74-.43-.5-.65-.74-.43-.5-.64-.74a19.82,19.82,0,0,0-15.44-7.39h-43.2A19.85,19.85,0,0,0,626.4,22.56V40.49h-5.75a19.7,19.7,0,0,0-4.37-8.16c-.21-.26-.43-.5-.65-.74s-.42-.5-.64-.74-.43-.5-.65-.74-.43-.5-.64-.74-.43-.5-.65-.74-.43-.5-.64-.74-.43-.5-.65-.74-.43-.5-.64-.75-.43-.49-.65-.74-.43-.49-.64-.74-.43-.49-.65-.74-.43-.49-.64-.74-.43-.49-.65-.74-.43-.49-.64-.74-.43-.5-.65-.74-.43-.5-.64-.74-.43-.5-.65-.74-.43-.5-.64-.74-.43-.5-.65-.74-.43-.5-.64-.74-.43-.5-.65-.74-.43-.5-.64-.74-.43-.5-.65-.75-.43-.49-.64-.74-.43-.49-.65-.74-.43-.49-.64-.74-.43-.49-.65-.74-.43-.49-.64-.74-.43-.49-.65-.74-.43-.5-.64-.74a19.8,19.8,0,0,0-15.45-7.4H538.36a19.85,19.85,0,0,0-19.84,19.85V41.89H430.64c-.2-.24-.4-.47-.61-.7l-.64-.75c-.22-.24-.43-.49-.65-.74L428.1,39c-.22-.24-.43-.49-.65-.74l-.64-.74c-.22-.24-.43-.49-.65-.74l-.64-.74c-.22-.25-.43-.5-.65-.74s-.42-.5-.64-.74-.43-.5-.65-.74-.42-.5-.64-.74-.43-.5-.65-.74-.42-.5-.64-.74-.43-.5-.65-.74-.42-.5-.64-.74-.43-.5-.65-.74-.42-.5-.64-.74l-.65-.75-.64-.74c-.22-.24-.43-.49-.65-.74l-.64-.74c-.22-.24-.43-.49-.65-.74s-.42-.5-.64-.74c-.85-1-1.73-1.94-2.64-2.87A61.63,61.63,0,0,0,369,2.88H262a19.71,19.71,0,0,0-11.32,3.55,19.76,19.76,0,0,0-11.56-3.72H196a19.74,19.74,0,0,0-12.55,4.48,19.74,19.74,0,0,0-12.55-4.48h-43.2a19.85,19.85,0,0,0-19.85,19.85V40.49h-5.75a19.7,19.7,0,0,0-4.37-8.16c-.21-.26-.43-.5-.65-.74s-.43-.5-.64-.74-.43-.5-.65-.74-.43-.5-.64-.74-.43-.5-.65-.74-.43-.5-.64-.74-.43-.5-.65-.74-.43-.5-.64-.75-.43-.49-.65-.74l-.64-.74c-.21-.25-.43-.49-.65-.74L90,23.44c-.21-.25-.43-.49-.65-.74L88.73,22c-.21-.25-.43-.5-.65-.74s-.43-.5-.64-.74-.43-.5-.65-.74-.43-.5-.64-.74-.43-.5-.65-.74-.43-.5-.65-.74-.42-.5-.64-.74-.43-.5-.64-.74-.43-.5-.65-.75l-.64-.74c-.21-.25-.43-.49-.65-.74L81,13.07c-.21-.25-.43-.49-.65-.74s-.43-.49-.65-.74-.42-.49-.64-.74-.43-.5-.65-.74A19.76,19.76,0,0,0,63,2.71H19.84A19.85,19.85,0,0,0,0,22.56v110.6a19.7,19.7,0,0,0,5.05,13.18c.2.26.42.5.64.75s.43.49.65.74.42.49.64.74.43.49.65.74.42.49.64.74.43.49.65.74.42.49.64.74.43.5.65.74.42.5.64.74.43.5.65.74.42.5.64.74.43.5.65.74.42.5.64.74.43.5.65.74.42.5.64.74.43.5.65.74.42.5.64.75.43.49.65.74.42.49.64.74.43.49.65.74.42.49.64.74.43.49.65.74.42.49.64.74.43.5.65.74.42.5.64.74.43.5.65.74.42.5.64.74.43.5.65.74.42.5.64.74.43.5.65.74A19.78,19.78,0,0,0,39.84,176H83a19.84,19.84,0,0,0,19.84-19.84V138.19h5.75a19.74,19.74,0,0,0,4.38,8.15c.2.26.43.5.64.75s.43.49.65.74.43.49.64.74.43.49.65.74.43.49.64.74.43.49.65.74.43.49.64.74.43.5.65.74.43.5.64.74.43.5.65.74.43.5.64.74.43.5.65.74.43.5.64.74.43.5.65.74.43.5.64.74.43.5.65.74.43.5.64.75.43.49.65.74.43.49.64.74.43.49.65.74.43.49.64.74.43.49.65.74l.64.74c.21.25.43.5.65.74s.43.5.64.74.43.5.65.74.43.5.64.74.43.5.65.74.43.5.64.74.43.5.65.74a19.79,19.79,0,0,0,15.44,7.4h43.2a19.75,19.75,0,0,0,12.55-4.47A19.8,19.8,0,0,0,216,176h43.12a19.73,19.73,0,0,0,11.32-3.55A19.69,19.69,0,0,0,282,176.12h43.12A19.85,19.85,0,0,0,345,156.28v-7.15h44.17A61.15,61.15,0,0,0,427,135.72a19.65,19.65,0,0,0,6.68,1.15h85.19a19.63,19.63,0,0,0,4.69,9.47c.2.26.42.5.64.75s.43.49.65.74.42.49.64.74.43.49.65.74.42.49.64.74.43.49.65.74.42.49.64.74.43.5.65.74.42.5.64.74.43.5.65.74.42.5.64.74.43.5.65.74.42.5.64.74.43.5.65.74.42.5.64.74.43.5.65.74.42.5.64.75.43.49.65.74.42.49.64.74.43.49.65.74.42.49.64.74.43.49.65.74.42.49.64.74.43.5.65.74.42.5.64.74.43.5.65.74.42.5.64.74.43.5.65.74.42.5.64.74.43.5.65.74a19.78,19.78,0,0,0,15.44,7.4h43.12a19.84,19.84,0,0,0,19.84-19.84V138.19h5.75a19.86,19.86,0,0,0,4.38,8.15c.21.26.43.5.65.75s.42.49.64.74.43.49.65.74.42.49.64.74.43.49.65.74.42.49.64.74.43.49.65.74.42.5.64.74.43.5.65.74.42.5.64.74.43.5.65.74.42.5.64.74.43.5.65.74.42.5.64.74.43.5.65.74.42.5.64.74.43.5.65.75.42.49.64.74.43.49.65.74.42.49.64.74.43.49.65.74.42.49.64.74.43.49.65.74.42.5.64.74.43.5.65.74.42.5.64.74.43.5.65.74.42.5.64.74.43.5.65.74.42.5.64.74a19.79,19.79,0,0,0,15.44,7.4h43.21A19.84,19.84,0,0,0,729,159.23c16.18,13,39.58,19.38,71.22,19.44h.08c29,0,51.12-5.46,67.06-16.43a1.59,1.59,0,0,1,.13.13c.21.25.42.5.64.74s.43.5.65.74.42.5.64.74.43.5.65.74.42.5.64.74.43.5.65.74.42.5.64.74.43.5.65.74.42.5.64.74a19.79,19.79,0,0,0,15.18,7.09h43.13a19.84,19.84,0,0,0,19.84-19.84v-7.15h44.18A61.4,61.4,0,0,0,1039,130.77a60.52,60.52,0,0,0,17.72-43.29A60.29,60.29,0,0,0,1041,46.3Zm-870,86.86h-43.2V95.39H63v37.77H19.84V22.56H63V60.33h64.77V22.56h43.2Zm68.22,0H196V22.56h43.12Zm129.44-26.83H305.15v27H262V22.72H368.59c22.8-.24,42.14,18.93,41.81,41.81C410.73,87.32,391.39,106.66,368.59,106.33ZM535.07,94.07H413.69V61.73H535.07Zm154.38,39.09h-43.2V95.39H581.48v37.77H538.36V22.56h43.12V60.33h64.77V22.56h43.2ZM855.76,81.89c.17,41.8-33.9,53.9-75.46,54-41.64-.08-75.71-12.18-75.54-54V73.82c-.17-41.88,33.9-53.9,75.54-54s75.46,12.18,75.46,54Zm119.33,24.44H911.64v27H868.52V22.72H975.09c22.79-.24,42.13,18.93,41.8,41.81C1017.22,87.32,997.88,106.66,975.09,106.33Z"/></g></g></svg>