<svg xmlns="http://www.w3.org/2000/svg" viewBox="0 0 485.83 111.46"><defs><style>.cls-1{fill:#231f20;}</style></defs><g id="Layer_2" data-name="Layer 2"><g id="Layer_1-2" data-name="Layer 1"><path class="cls-1" d="M168.08,33.56c-11.47.16-21.17,2.25-21,13.67V49c-.16,11.48,9.54,13.57,21,13.72C179.49,62.52,189.19,60.43,189,49V47.23C189.19,35.81,179.49,33.72,168.08,33.56Z"/><path class="cls-1" d="M485.83,28.39a11.33,11.33,0,0,0-5.51-9.72c-.24-.17-.49-.33-.75-.49s-.5-.33-.75-.49l-.76-.49c-.24-.17-.49-.34-.75-.49s-.49-.34-.75-.49a8.75,8.75,0,0,0-.75-.49,8.9,8.9,0,0,0-.76-.49,7.43,7.43,0,0,0-.75-.49c-.24-.18-.49-.34-.75-.5l-.75-.49-.76-.49c-.24-.17-.49-.33-.75-.49s-.5-.33-.75-.49-.5-.34-.76-.49-.49-.34-.75-.49a7.43,7.43,0,0,0-.75-.49,8.75,8.75,0,0,0-.75-.49,8.9,8.9,0,0,0-.76-.49c-.24-.18-.49-.34-.75-.5s-.49-.33-.75-.49l-.75-.49-.76-.49c-.24-.17-.49-.34-.75-.49s-.49-.34-.75-.49-.5-.34-.75-.49a8.9,8.9,0,0,0-.76-.49,7.43,7.43,0,0,0-.75-.49c-.24-.18-.5-.34-.75-.5l-.76-.49c-.24-.17-.49-.33-.75-.49a11.32,11.32,0,0,0-6.58-2.11H367.3A11.24,11.24,0,0,0,359.44,5l-.28-.17a7.43,7.43,0,0,0-.75-.49,8.75,8.75,0,0,0-.75-.49A11.3,11.3,0,0,0,351,1.72H316.12A11.35,11.35,0,0,0,307.26,6L293.75,22.91l-1.35-1.69a11.23,11.23,0,0,0-3.11-2.69c-.25-.17-.5-.34-.76-.49a7.43,7.43,0,0,0-.75-.49,7.43,7.43,0,0,0-.75-.49c-.25-.18-.5-.34-.75-.5l-.76-.49c-.24-.17-.49-.34-.75-.49s-.49-.34-.75-.49-.5-.34-.75-.49-.5-.34-.76-.49-.49-.34-.75-.49-.49-.34-.75-.49-.5-.34-.75-.49-.5-.34-.76-.5-.49-.33-.75-.49l-.75-.49c-.25-.17-.5-.34-.76-.49s-.49-.34-.75-.49-.49-.34-.75-.49-.5-.34-.75-.49-.5-.34-.76-.49-.49-.34-.75-.49a7.43,7.43,0,0,0-.75-.49c-.25-.18-.5-.34-.75-.5l-.76-.49c-.24-.17-.49-.34-.75-.49s-.49-.34-.75-.49-.5-.34-.76-.49-.49-.34-.75-.49-.49-.34-.75-.49-.5-.34-.75-.49a11.31,11.31,0,0,0-6.51-2.08h-35a11.33,11.33,0,0,0-11.3,10.67l-.32-.2-.75-.49-.76-.49c-.24-.17-.5-.33-.75-.49l-.75-.5C201.53,4.15,188,0,168.05,0c-18.5,0-32.51,3.37-42.57,10.14l-.64-.41c-.25-.17-.5-.34-.76-.49a7.43,7.43,0,0,0-.75-.49,8.75,8.75,0,0,0-.75-.49,8.9,8.9,0,0,0-.76-.49c-.24-.18-.49-.34-.75-.5s-.49-.33-.75-.49-.5-.33-.75-.49l-.76-.49c-.24-.17-.49-.33-.75-.49s-.49-.34-.75-.49-.5-.34-.75-.49a8.9,8.9,0,0,0-.76-.49,11.23,11.23,0,0,0-6.58-2.12h-28A11.34,11.34,0,0,0,69.9,13.06V19.6a12.39,12.39,0,0,0-1.46-1,8.9,8.9,0,0,0-.76-.49,7.43,7.43,0,0,0-.75-.49,7.43,7.43,0,0,0-.75-.49c-.25-.18-.5-.34-.76-.5s-.49-.33-.75-.49-.49-.33-.75-.49-.5-.33-.75-.49-.5-.34-.76-.49-.49-.34-.75-.49-.49-.34-.75-.49a8.75,8.75,0,0,0-.75-.49,8.9,8.9,0,0,0-.76-.49,7.43,7.43,0,0,0-.75-.49c-.24-.18-.49-.34-.75-.5l-.75-.49-.76-.49c-.24-.17-.49-.33-.75-.49s-.5-.34-.75-.49-.5-.34-.76-.49a7.43,7.43,0,0,0-.75-.49,7.43,7.43,0,0,0-.75-.49,8.75,8.75,0,0,0-.75-.49c-.25-.18-.5-.34-.76-.5s-.49-.33-.75-.49-.49-.33-.75-.49l-.75-.49-.76-.49c-.24-.17-.49-.34-.75-.49s-.49-.34-.75-.49-.5-.34-.75-.49a11.29,11.29,0,0,0-6.59-2.12H11.34A11.34,11.34,0,0,0,0,13.06V83.18a11.32,11.32,0,0,0,5.51,9.71c.24.17.5.34.75.49a8.9,8.9,0,0,0,.76.49,7.43,7.43,0,0,0,.75.49,7.43,7.43,0,0,0,.75.49c.25.18.5.34.75.5l.76.49c.24.17.49.33.75.49s.5.33.75.49l.76.49c.24.17.49.34.75.49s.49.34.75.49a8.75,8.75,0,0,0,.75.49,8.9,8.9,0,0,0,.76.49,7.43,7.43,0,0,0,.75.49c.24.18.49.34.75.5l.75.49.76.49c.24.17.49.33.75.49s.49.33.75.49.5.34.75.49.5.34.76.49a7.43,7.43,0,0,0,.75.49,8.75,8.75,0,0,0,.75.49,8.9,8.9,0,0,0,.76.49c.24.18.49.34.75.5s.49.33.75.49.5.33.75.49l.76.49c.24.17.49.34.75.49s.49.34.75.49a11.28,11.28,0,0,0,6.58,2.12H62.61A11.34,11.34,0,0,0,74,98.4V91.86a10.93,10.93,0,0,0,1.46,1c.24.17.49.34.75.49a7.43,7.43,0,0,0,.75.49c.25.18.5.34.75.49a8.9,8.9,0,0,0,.76.49c.24.18.49.34.75.5s.49.33.75.49l.75.49.76.49c.24.17.49.33.75.49s.5.34.75.49.5.34.76.49a7.43,7.43,0,0,0,.75.49,7.43,7.43,0,0,0,.75.49,8.75,8.75,0,0,0,.75.49c.25.18.5.34.76.5s.49.33.75.49.49.33.75.49l.75.49.76.49c.24.17.49.34.75.49s.5.34.75.49a8.9,8.9,0,0,0,.76.49,52683713853030.85,52683713853030.85,0,0,0,1.5,1c.24.18.5.34.75.5l.76.49c.24.17.49.33.75.49s.49.33.75.49.5.34.75.49.5.34.76.49a11.23,11.23,0,0,0,6.58,2.12h28A11.34,11.34,0,0,0,143.89,98.4v-.3l.39.25.75.49.76.49.75.49.75.49.76.49.75.49c.25.17.49.34.75.49,10,6.46,23.79,9.64,41.84,9.68h0c18,0,31.71-3.19,41.7-9.6l.59.38.76.49c.24.17.49.33.75.49s.49.33.75.49.5.34.75.49.5.34.76.49.49.34.75.49a7.43,7.43,0,0,0,.75.49c.25.18.5.34.75.49s.5.34.76.5.49.33.75.49.49.33.75.49a11.32,11.32,0,0,0,6.56,2.1h27.93a11.35,11.35,0,0,0,11.06-8.86c.19.13.39.24.59.36a7.43,7.43,0,0,0,.75.49c.25.18.5.34.75.49s.5.34.76.5.49.33.75.49.49.33.75.49.5.34.75.49.5.34.76.49.49.34.75.49.5.34.75.49a8.9,8.9,0,0,0,.76.49,7.43,7.43,0,0,0,.75.49,7.43,7.43,0,0,0,.75.49c.25.18.5.34.75.5a11.39,11.39,0,0,0,6.56,2.11h14a11.35,11.35,0,0,0,9.08-4.55l2.81-3.76c.16.11.33.2.49.3s.49.33.75.49.5.34.75.49.5.34.76.49a7.43,7.43,0,0,0,.75.49,8.75,8.75,0,0,0,.75.49,8.9,8.9,0,0,0,.76.49c.24.18.49.34.75.5s.49.33.75.49.5.33.75.49l.76.49c.24.17.49.34.75.49s.49.34.75.49a11.28,11.28,0,0,0,6.58,2.12h27.94a11.27,11.27,0,0,0,7.86-3.19l.27.17a8.9,8.9,0,0,0,.76.49c.24.18.49.34.75.5a11.26,11.26,0,0,0,6.61,2.13h83.86A11.34,11.34,0,0,0,485.83,98.5v-18a11.32,11.32,0,0,0-.92-4.48,11.41,11.41,0,0,0,.92-4.49V55.31a11.37,11.37,0,0,0-.92-4.49,11.37,11.37,0,0,0,.92-4.49ZM109.22,83.18h-28v-24h-42v24H11.34V13.06H39.27V37h42V13.06h28ZM217,50.67c.1,26.51-22,34.18-48.89,34.23s-49.05-7.72-49-34.23V45.56c-.1-26.55,22-34.17,49-34.22S217,19.06,217,45.56ZM351,83.18H323.11V45.77l-28,37.41h-14l-28-37.41V83.18H225.22V13.06h35l27.93,35.06,28-35.06H351ZM451.16,31.11H395.23v9h55.93V56.31H395.23v9h55.93v18H367.3V13.16h83.86Z"/></g></g></svg>